HIERARCHY
ROOT Hips
{
	OFFSET -14.64140 90.27770 -84.91600
	CHANNELS 6 Xposition Yposition Zposition Zrotation Xrotation Yrotation
	JOINT Spine
	{
		OFFSET 0.00000 13.20850 -1.60436
		CHANNELS 3 Zrotation Xrotation Yrotation
		JOINT Spine1
		{
			OFFSET 0.00000 8.61716 0.00000
			CHANNELS 3 Zrotation Xrotation Yrotation
			JOINT Spine2
			{
				OFFSET 0.00000 8.61717 0.00000
				CHANNELS 3 Zrotation Xrotation Yrotation
				JOINT Spine3
				{
					OFFSET 0.00000 8.61717 0.00000
					CHANNELS 3 Zrotation Xrotation Yrotation
					JOINT Neck
					{
						OFFSET 0.00000 11.07920 1.10792
						CHANNELS 3 Zrotation Xrotation Yrotation
						JOINT Neck1
						{
							OFFSET 0.00000 7.08032 0.00000
							CHANNELS 3 Zrotation Xrotation Yrotation
							JOINT Head
							{
								OFFSET 0.00000 7.08031 0.00000
								CHANNELS 3 Zrotation Xrotation Yrotation
								End site
								{
									OFFSET 0.00000 0.00000 0.00000
								}
							}
						}
					}
					JOINT RightShoulder
					{
						OFFSET -0.01000 7.91373 5.19711
						CHANNELS 3 Zrotation Xrotation Yrotation
						JOINT RightArm
						{
							OFFSET -18.41580 0.00000 0.00000
							CHANNELS 3 Zrotation Xrotation Yrotation
							JOINT RightForeArm
							{
								OFFSET -29.11090 0.00000 0.00000
								CHANNELS 3 Zrotation Xrotation Yrotation
								JOINT RightHand
								{
									OFFSET -24.65040 0.00000 0.00000
									CHANNELS 3 Zrotation Xrotation Yrotation
									JOINT RightHandThumb1
									{
										OFFSET -5.35114 -0.85590 3.97906
										CHANNELS 3 Zrotation Xrotation Yrotation
										JOINT RightHandThumb2
										{
											OFFSET -4.52789 0.00000 0.00000
											CHANNELS 3 Zrotation Xrotation Yrotation
											JOINT RightHandThumb3
											{
												OFFSET -2.46976 0.00000 0.00000
												CHANNELS 3 Zrotation Xrotation Yrotation
												End site
												{
													OFFSET 0.00000 0.00000 0.00000
												}
											}
										}
									}
									JOINT RightHandIndex1
									{
										OFFSET -14.26970 0.00000 2.88139
										CHANNELS 3 Zrotation Xrotation Yrotation
										JOINT RightHandIndex2
										{
											OFFSET -5.48836 0.00000 0.00000
											CHANNELS 3 Zrotation Xrotation Yrotation
											JOINT RightHandIndex3
											{
												OFFSET -3.01859 0.00000 0.00000
												CHANNELS 3 Zrotation Xrotation Yrotation
												End site
												{
													OFFSET 0.00000 0.00000 0.00000
												}
											}
										}
									}
									JOINT RightHandMiddle1
									{
										OFFSET -14.26970 0.00000 -0.09147
										CHANNELS 3 Zrotation Xrotation Yrotation
										JOINT RightHandMiddle2
										{
											OFFSET -6.17441 0.00000 0.00000
											CHANNELS 3 Zrotation Xrotation Yrotation
											JOINT RightHandMiddle3
											{
												OFFSET -3.56743 0.00000 0.00000
												CHANNELS 3 Zrotation Xrotation Yrotation
												End site
												{
													OFFSET 0.00000 0.00000 0.00000
												}
											}
										}
									}
									JOINT RightHandRing1
									{
										OFFSET -12.69180 0.00000 -3.06433
										CHANNELS 3 Zrotation Xrotation Yrotation
										JOINT RightHandRing2
										{
											OFFSET -5.62556 0.00000 0.00000
											CHANNELS 3 Zrotation Xrotation Yrotation
											JOINT RightHandRing3
											{
												OFFSET -3.56744 0.00000 0.00000
												CHANNELS 3 Zrotation Xrotation Yrotation
												End site
												{
													OFFSET 0.00000 0.00000 0.00000
												}
											}
										}
									}
									JOINT RightHandPinky1
									{
										OFFSET -11.11390 0.00000 -6.03719
										CHANNELS 3 Zrotation Xrotation Yrotation
										JOINT RightHandPinky2
										{
											OFFSET -4.52789 0.00000 0.00000
											CHANNELS 3 Zrotation Xrotation Yrotation
											JOINT RightHandPinky3
											{
												OFFSET -2.46976 0.00000 0.00000
												CHANNELS 3 Zrotation Xrotation Yrotation
												End site
												{
													OFFSET 0.00000 0.00000 0.00000
												}
											}
										}
									}
								}
							}
						}
					}
					JOINT LeftShoulder
					{
						OFFSET 0.01000 7.91373 5.19711
						CHANNELS 3 Zrotation Xrotation Yrotation
						JOINT LeftArm
						{
							OFFSET 18.41580 0.00000 0.00000
							CHANNELS 3 Zrotation Xrotation Yrotation
							JOINT LeftForeArm
							{
								OFFSET 29.11090 0.00000 0.00000
								CHANNELS 3 Zrotation Xrotation Yrotation
								JOINT LeftHand
								{
									OFFSET 24.65040 0.00000 0.00000
									CHANNELS 3 Zrotation Xrotation Yrotation
									JOINT LeftHandThumb1
									{
										OFFSET 5.35114 -0.85590 3.97906
										CHANNELS 3 Zrotation Xrotation Yrotation
										JOINT LeftHandThumb2
										{
											OFFSET 4.52789 0.00000 0.00000
											CHANNELS 3 Zrotation Xrotation Yrotation
											JOINT LeftHandThumb3
											{
												OFFSET 2.46977 0.00000 0.00000
												CHANNELS 3 Zrotation Xrotation Yrotation
												End site
												{
													OFFSET 0.00000 0.00000 0.00000
												}
											}
										}
									}
									JOINT LeftHandIndex1
									{
										OFFSET 14.26970 0.00000 2.88139
										CHANNELS 3 Zrotation Xrotation Yrotation
										JOINT LeftHandIndex2
										{
											OFFSET 5.48836 0.00000 0.00000
											CHANNELS 3 Zrotation Xrotation Yrotation
											JOINT LeftHandIndex3
											{
												OFFSET 3.01859 0.00000 0.00000
												CHANNELS 3 Zrotation Xrotation Yrotation
												End site
												{
													OFFSET 0.00000 0.00000 0.00000
												}
											}
										}
									}
									JOINT LeftHandMiddle1
									{
										OFFSET 14.26970 0.00000 -0.09147
										CHANNELS 3 Zrotation Xrotation Yrotation
										JOINT LeftHandMiddle2
										{
											OFFSET 6.17440 0.00000 0.00000
											CHANNELS 3 Zrotation Xrotation Yrotation
											JOINT LeftHandMiddle3
											{
												OFFSET 3.56744 0.00000 0.00000
												CHANNELS 3 Zrotation Xrotation Yrotation
												End site
												{
													OFFSET 0.00000 0.00000 0.00000
												}
											}
										}
									}
									JOINT LeftHandRing1
									{
										OFFSET 12.69180 0.00000 -3.06433
										CHANNELS 3 Zrotation Xrotation Yrotation
										JOINT LeftHandRing2
										{
											OFFSET 5.62556 0.00000 0.00000
											CHANNELS 3 Zrotation Xrotation Yrotation
											JOINT LeftHandRing3
											{
												OFFSET 3.56744 0.00000 0.00000
												CHANNELS 3 Zrotation Xrotation Yrotation
												End site
												{
													OFFSET 0.00000 0.00000 0.00000
												}
											}
										}
									}
									JOINT LeftHandPinky1
									{
										OFFSET 11.11390 0.00000 -6.03719
										CHANNELS 3 Zrotation Xrotation Yrotation
										JOINT LeftHandPinky2
										{
											OFFSET 4.52789 0.00000 0.00000
											CHANNELS 3 Zrotation Xrotation Yrotation
											JOINT LeftHandPinky3
											{
												OFFSET 2.46976 0.00000 0.00000
												CHANNELS 3 Zrotation Xrotation Yrotation
												End site
												{
													OFFSET 0.00000 0.00000 0.00000
												}
											}
										}
									}
								}
							}
						}
					}
					JOINT pCube4
					{
						OFFSET 0.00000 10.91090 1.10792
						CHANNELS 3 Zrotation Xrotation Yrotation
						End site
						{
							OFFSET 0.00000 0.00000 0.00000
						}
					}
				}
			}
		}
	}
	JOINT RightUpLeg
	{
		OFFSET -9.98441 0.00000 0.00000
		CHANNELS 3 Zrotation Xrotation Yrotation
		JOINT RightLeg
		{
			OFFSET 0.00000 -42.11790 0.00000
			CHANNELS 3 Zrotation Xrotation Yrotation
			JOINT RightFoot
			{
				OFFSET 0.00000 -45.00020 -0.00001
				CHANNELS 3 Zrotation Xrotation Yrotation
				JOINT RightForeFoot
				{
					OFFSET 0.00000 -3.74820 0.00000
					CHANNELS 3 Zrotation Xrotation Yrotation
					JOINT RightToeBase
					{
						OFFSET 0.00000 0.06325 14.43120
						CHANNELS 3 Zrotation Xrotation Yrotation
						End site
						{
							OFFSET 0.00000 0.00000 0.00000
						}
					}
				}
			}
		}
	}
	JOINT LeftUpLeg
	{
		OFFSET 9.98441 0.00000 0.00000
		CHANNELS 3 Zrotation Xrotation Yrotation
		JOINT LeftLeg
		{
			OFFSET 0.00000 -42.11800 0.00000
			CHANNELS 3 Zrotation Xrotation Yrotation
			JOINT LeftFoot
			{
				OFFSET 0.00000 -45.00070 0.00000
				CHANNELS 3 Zrotation Xrotation Yrotation
				JOINT LeftForeFoot
				{
					OFFSET 0.00000 -3.74824 0.00000
					CHANNELS 3 Zrotation Xrotation Yrotation
					JOINT LeftToeBase
					{
						OFFSET 0.00000 0.06325 14.43110
						CHANNELS 3 Zrotation Xrotation Yrotation
						End site
						{
							OFFSET 0.00000 0.00000 0.00000
						}
					}
				}
			}
		}
	}
}
MOTION
Frames: 4
Frame Time: 0.050000
0.02715566273041893 -0.0023639942498179974 -0.03464048165221875 0.014012674638209334 -0.029622391352934582 0.02152754582218844 -2.2281247258074024 3.8919838240601567 -1.048628045058336 -0.94274370803299 3.7936303762292503 0.39682238512686946 -0.9988252705453764 -0.34575606486972943 -1.0944200588458508 0.6254185460642029 0.397298607783556 -0.8118709210112711 -0.15468934780761742 10.982059584051642 -1.055812801582052 -0.027882828389468966 -0.9368243747050977 -3.588655003728501 0.3377965417625681 -15.868483154927882 -0.2933625514112194 0.2951546212756293 0.4961587460267841 -14.953122665652387 66.10286060209336 1.2672256685428385 9.032329989825419 30.73497373449456 -1.88045002465903 93.8056319333302 13.567294929086687 -0.26365963787934504 -4.457164378929038 4.532935637260476 -0.12600187476594937 -1.596670562031111 -0.006901860901796637 -0.0016936054037402634 -56.19504868415983 -0.007121551870879823 -0.01769445434012964 -56.25464677178092 -38.74210786509733 -0.006414338815421137 0.004986549501790901 -0.038836054466436086 0.020707765789460725 -0.025123061170548217 0.0067572384797792 -0.043281542382935044 -0.01695608731654871 -36.66230623209806 -0.040270121645068845 -0.006123250926474835 0.030534779110576386 -0.0049878070067486385 -0.00943415918491982 -0.02362894308716777 0.019802003530369726 -0.010711540409090585 -19.736431062263197 0.03014351412096816 0.021223435406870706 0.007639384460930243 -0.048668065733399914 -0.03481963605694969 0.019275877705830027 -0.011407417677166866 -0.022518584566044053 24.010849045100358 -0.017235500082022237 0.011224472676984171 28.849285902863976 -0.047902700792293765 -0.0062874190824427035 28.888119561442096 -0.007034375597855665 -0.021094903191652883 1.1361319507296628 0.6981434938076511 12.760773773950694 -61.74982902302456 26.77884361108729 -17.166978840319686 -6.265766247754671 6.825321818155547 -75.93602367906628 -13.201569653297964 3.868978348387777 -1.8211784482987718 -0.47785026187496144 0.09222633842582056 -8.101830167194917 -0.0389715807526629 -0.016261699201776753 44.589773768863004 0.002174969316496044 0.004711204532961078 44.580747575204896 12.462680625217372 -0.00608225574230913 -0.010364902505718861 0.009886741319644912 0.022484799479630183 -0.016711427673616927 -0.02656650878338472 0.002404185418374656 -0.023550219228153455 11.107745383895914 0.03206377138652892 -0.0043926090419885355 0.02378545218462977 0.036159078154076076 0.017437224230196984 -0.022322601876805827 0.04131109469776285 0.022478724535277064 4.8021312406892545 -0.00296777279878817 -0.02491696146894859 -0.013363731287580819 -0.010246783526702608 0.0046534339467783365 0.04898845801653234 0.028449535280330836 -0.0067907140762125204 -5.602161202019451 0.03767619344662186 -0.00024983500264133714 -6.672483329381898 0.023648118056987327 -0.015585126590940024 -6.698428680212827 0.03140101604889769 -0.02009980644445717 0.0334150013227814 0.01420668688731572 -0.005054371503724317 8.020101634916257 3.451589109001452 -19.207185154032118 -0.03759091139321086 10.346723679439345 -0.004270399455333078 -5.589135529318119 -15.646519543945407 3.169262556383101 -0.024129572341199616 0.029605489406601713 -0.028399381626238965 0.0131421764161257 4.664789155176263 -0.022250203526856707 12.459231103575975 -8.234633769658144 6.872635891629053 0.02698694575660172 46.347511162590784 0.010750287257125974 -4.302397775092986 -14.760227584677116 -3.8069231101727152 -0.041064546312348724 -0.02479372823552201 -0.0021957980500024116 -0.013636336156548507 -10.721789317503536 -0.008941859372889008 
0.007398419750871791 0.01841345688716785 0.0014463693481413882 0.01441153559827553 0.040260040107081514 0.03903105550221073 -2.161252129489208 3.9509860283633365 -1.0119347636363394 -0.9280943196929564 3.8361743296484985 0.3570100464762346 -0.8987113823174939 -0.3425118328706398 -0.9143247208921838 0.5841538056144345 0.3470171001311637 -0.7920974029116855 -0.29441983537952804 11.056755835183445 -0.8211064733896277 -0.031122975866929817 -0.9531214448259699 -3.420410587983604 0.251161344762734 -15.846324486831582 -0.2839497672635292 0.5089168777727064 0.4516561746559399 -14.581387496724707 65.4973955076744 3.439170361236118 10.889379455735003 31.124670248021097 -2.3826023459962085 92.9957237525341 15.137451021014206 -0.3419341086752864 -4.993174594744173 4.498122248171261 -0.11411667479871979 -1.6358373254088328 0.019996919698084682 -0.04202423018494262 -56.211253086911654 -0.049977194282365876 0.02108831009096595 -56.2440761740889 -38.76850187992969 -0.04832828988582321 0.007571751282731029 -0.04858279367417122 -0.02136033363316331 -0.02958464445981407 0.037042197026202255 0.016865292534472925 -0.0033738682808671784 -36.72711673486186 -0.03644705643774475 0.0020935169095506957 0.005312717865244926 0.020563092267718634 0.006830667193532017 0.0033279290540925255 -0.03248581121550162 -0.02334552646062589 -19.748182668552865 0.0011934296866262678 5.041129221580729e-05 -0.039155434982598256 0.02064669543974431 -0.008875959467691163 0.04402046571536914 -0.015784380710541553 0.03515937555753493 24.05264165322767 -0.0073119892130357675 -0.03707029788546666 28.872278095842226 0.004330768270451082 -0.009633674019742555 28.837572264972724 -0.02410604018326103 0.03414449289931188 1.2997973438583519 0.7608072898060736 12.726267639977126 -60.64279657280752 26.792668156661865 -19.516189662199004 -4.53860366052116 5.134589816303597 -77.25372832014298 -13.715052704878119 4.304319399336352 -2.3187407322425244 -0.4274540239982284 0.037981247271136526 -8.118416049144944 0.0098231201304833 0.032595807566404886 44.549591131919044 -0.030909039461101025 -0.007060783434639924 44.55194732173374 12.451889410440089 -0.04900734903752683 -0.04350623211117605 -0.0011896917062489347 0.04665497771492466 0.037503877579193476 -0.03603939087182968 -0.009285055469983412 0.012883013486612726 11.073052150538459 0.0311911700357861 -0.01227674200429257 -0.0008930268836515704 0.02690750607537933 0.021678964513060624 -0.009821653142553415 0.009358082257048686 0.010744010360947303 4.813230234536408 0.021738464707275463 0.040854370084117235 -0.006048056924545886 0.028597523011385337 0.04359029121992859 0.030161448408122366 0.03546178951491394 -0.0459169258321154 -5.604097630395529 -0.005247896913206604 -0.014479463809644055 -6.769899361095006 0.029589661468110737 0.00873075019886289 -6.724696419633284 -0.01693896557217079 -0.028086980991879305 -0.018889014483365368 -0.019589628736906905 -0.03264291075887843 8.080847767012234 3.4949169891815215 -19.216328282684152 0.04587556373038822 10.38259413407811 -0.01809098444048583 -5.638496723661059 -15.655854872770135 3.2110481708097387 -0.04524870747855633 -0.04383018942414927 0.0408029353762427 -0.003891373983507147 4.699728132459718 -0.026580869724441573 12.480382310316507 -8.246116831292975 6.8377123826826285 -0.038421957078508324 46.35657407505996 -0.03398551860520286 -4.3224207801039505 -14.72701875327993 -3.872214348551345 0.018812573161706758 -0.03554221569025038 0.023194505585811705 0.03393581489577698 -10.739770815782261 -0.043065331788720046 
-0.005200806911365082 0.02629513390085053 -0.003729430338805621 0.0020633370985284043 -0.01421795391305574 -0.01632546831590896 -2.172708658915033 4.10835726055183 -0.9845429270661935 -0.8623780742077992 3.8059776295830448 0.4283933689800394 -0.946323518528454 -0.34086316998263044 -0.9752691177844864 0.5696529364478158 0.40027995710001885 -0.8534426477207046 -0.3964699784312642 11.07508732111526 -0.8010274152961355 -0.10478913548141564 -0.977734076298704 -3.29068422453752 0.261118222841608 -15.791229753091622 -0.25655075069688144 0.760895574439119 0.4139540252795273 -14.310638876269037 64.78713886276324 4.597660301349013 12.099901365102202 31.910145230308846 -2.405278163651463 92.51549610330096 16.081831452851404 -0.2764182324957555 -5.583586143506516 4.493535501594766 -0.1388640503548802 -1.5817108554276327 -0.026561721815838248 -0.030385678296068416 -56.268133226138204 0.026282071852867493 0.000781008084237411 -56.19594920636352 -38.72838428277874 0.013306023558724626 -0.0022148077805409063 -0.02840612606235397 0.008139461969305385 0.03114586820185453 -0.015713022642909642 0.01773535179398197 -0.016493999614995845 -36.684882125772134 -0.025430585688352925 0.03252846416239987 0.018607583108241368 -0.018853190696339978 -0.008641928610171887 -0.035729429680520945 -0.03520995522880214 0.04991379526128483 -19.762799223975964 0.004972151191955522 0.011555813011130197 0.027284408381195127 0.03338691905707196 -0.01867245204476197 0.0057199287613315586 0.010897444615160071 -0.019001825235401806 24.00964974208914 -0.03854438745393506 0.015066928539529095 28.87150783813822 0.016926125162737952 -0.038381722368488934 28.86241326251193 0.0035482625301778703 -0.042795149910358245 1.2153557088010192 0.7405484572223529 12.544541889820971 -59.49807676274472 27.168054208180116 -21.288941975037822 -2.547790016427317 3.9017693286374993 -78.15364607642256 -13.930701004169872 4.722565116102806 -2.7692656114468086 -0.43787884370313146 0.10566628054400368 -8.100824174521405 0.0016806951284405805 -0.022500418266462523 44.59578721726832 -0.033269980808240264 0.014506343238156666 44.55889973407394 12.489931124711054 -0.04601594565297785 0.008578662279952954 -0.017659912593711708 0.03247271712250351 0.011982225824859841 -0.005232223291073308 -0.01381806990942325 -0.01708524445371171 11.056883182248376 0.014724490389988087 0.014654286230855466 -0.007645757816384017 0.004821062663845145 0.00017773129521055293 0.037793078115968194 -0.009500653456921858 0.047868544556800806 4.747415450885509 0.025091208504890165 -0.0323272265596007 0.022180934764312044 -0.008379774311265163 0.02956395466848262 -0.029444255215719136 0.010258271640951102 -0.00024378700046142352 -5.5861949825243515 0.025402025370993064 0.04831120202827133 -6.751090059925116 -0.030781357902848375 0.04137411537076779 -6.7181746279551 0.01123956595271545 -0.009615412647801132 -0.04925578636754565 0.017475949555803037 -0.03696188149635903 8.074843006876419 3.526705033549606 -19.181311600475475 0.01928166291898393 10.40995553021572 0.04846375319447915 -5.656161439725538 -15.6270753242258 3.1641320416991787 0.013000030364720966 0.015473598010640053 0.020708068796405407 0.03300237075191898 4.684194415281041 0.016670796856709906 12.479495015408686 -8.260352448168248 6.920753579918797 -0.0032166590631380796 46.38985678266541 0.013528896328770235 -4.341897354042616 -14.727116829568274 -3.8604595766227883 0.025951515842023935 0.04252661028140865 0.01069261929650187 -0.04936517639554666 -10.792745611425156 -0.04183048690030616 
0.014180618640183915 0.03295032436668621 0.03302323223842058 0.0285045169637113 -0.016796675250675006 0.014405859623053652 -2.245135838851291 4.202456473780588 -0.980156662594131 -0.8598196369444727 3.780229573378338 0.4057001248708864 -0.9470793789711414 -0.22610182099929457 -1.1001903126328916 0.6159003172408368 0.3922823200470619 -0.8094138309645088 -0.3903413762011439 10.911283525787743 -0.8686635968181947 -0.10500935060692428 -1.040234429786786 -3.343236433950998 0.2549893535840623 -15.814025349574875 -0.30300141414012505 1.0500543905443773 0.284491720480333 -14.17967058120907 64.09521968547057 4.918596124568928 12.903333078334677 32.82709945290977 -2.021362735585903 92.448367032934 16.692164651025088 -0.28851417553687503 -6.091298365134633 4.504769108592714 -0.15868062973770436 -1.62750121641677 -0.04965939799743618 -0.011783672803417607 -56.23130486621532 -0.0008215962733305169 0.0422740229707479 -56.20766974241774 -38.78472293945166 0.03444794953176684 -0.02177555215367524 0.028948322707323646 0.0035016664331800063 -0.03529257437557037 -0.014228772281709082 0.030071355725415982 0.03928619293464822 -36.64523632190754 -0.03763120873701329 0.006900594888424152 -0.03623972729513272 -0.04387738705705838 0.022116973277425598 -0.030994741119477823 0.04713124188809701 -0.01582693854788809 -19.71699714988698 0.02100507652960221 0.03682017208643391 -0.02533404289772093 -0.030782229190295364 0.023613660658432994 0.03302316153291465 -0.02607718919516932 -0.017512317742332986 24.05754986269103 -0.03966265398738775 -0.026345833433173777 28.883016038550505 -0.04496479841285898 0.020264649078129353 28.828873940565295 -0.01852120445824776 0.04875388755626067 0.9918013140273989 0.6200199629938276 12.401654002102378 -58.39662586713759 27.748172848088778 -22.522961848308206 -0.4815079448923698 2.8940521033764193 -78.81144238971085 -13.941180239244412 4.995248502868123 -3.1701714211702816 -0.4948234945084852 0.056909456246534366 -8.07997118505769 0.04040057317500441 -0.0481988816389901 44.53247535193974 -0.033187992341103895 -0.015389128720157469 44.613930522938865 12.480134831345826 -0.04594937539034134 0.03528245332702664 -0.006192481027948089 0.0302041688054417 0.03585076657158958 0.007512255400401195 0.028274787253221988 -0.007642337214166625 11.147434468143208 -0.016352886062179828 -0.02097498671898045 -0.010642870898761479 -0.0016376183978819225 -0.03225046106040007 -0.026450089826356722 -0.008655351120473338 0.019110059774316266 4.7286508309695385 -0.019816916316215117 0.0002246555030439462 0.04653270627844928 -0.02066238793483134 -0.007277672224808179 -0.007906756795740967 0.02875470770630811 -0.03507771450444246 -5.594023779645429 -0.038027605748816404 0.043255050074655736 -6.671184904797851 0.001614389240236084 -0.0018562574428390372 -6.711784410136375 -0.003496941216860401 -0.04604771298750514 0.021043766010018786 0.02765438845826044 0.04728698070514557 8.035552010808088 3.491278933396113 -19.22555514296029 -0.03638910138003043 10.428424080783484 0.03325060766833182 -5.589048138215206 -15.61462440345717 3.1762047507090783 0.03313817575955544 -0.007472692257608391 0.03400895462059233 0.01582162136586641 4.7003603714322635 -0.031030252628577584 12.410713845556344 -8.235867031696573 6.898739630542527 -0.021526540364227423 46.404495704799864 0.021275472373007448 -4.357462468265783 -14.76937177909962 -3.8561748232148334 -0.013751407113191956 0.010104650903994459 2.0600221290753502e-05 0.037747984738075425 -10.727321993987823 -0.002091941200434007 
